<svg xmlns="http://www.w3.org/2000/svg" id="Capa_1" height="512" viewBox="0 0 512.003 512.003" width="512"><g><path d="m498.911 225.88c8.217-1.054 14.023-8.57 12.969-16.787-9.393-73.212-42.575-127.472-68.759-160.098-5.185-6.461-14.623-7.496-21.087-2.311-6.461 5.185-7.495 14.626-2.31 21.087 23.771 29.623 53.895 78.849 62.399 145.139 1.054 8.217 8.569 14.023 16.788 12.97z"></path><path d="m13.092 225.88c8.235 1.054 15.735-4.767 16.787-12.969 8.505-66.291 38.628-115.517 62.4-145.14 5.186-6.461 4.151-15.902-2.31-21.087-6.462-5.185-15.903-4.149-21.087 2.311-26.183 32.626-59.366 86.886-68.758 160.098-1.055 8.217 4.752 15.732 12.968 16.787z"></path><path d="m438.714 225.821c8.185-1.28 13.782-8.952 12.503-17.137-8.404-53.749-33.557-94.922-53.177-119.998-5.104-6.525-14.533-7.676-21.057-2.57-6.524 5.105-7.676 14.533-2.57 21.057 17.427 22.272 39.756 58.768 47.163 106.145 1.283 8.209 8.979 13.782 17.138 12.503z"></path><path d="m135.02 86.116c-6.525-5.107-15.954-3.954-21.057 2.57-19.62 25.076-44.772 66.249-53.177 119.998-1.279 8.185 4.318 15.857 12.503 17.137 8.144 1.276 15.852-4.282 17.138-12.503 7.407-47.377 29.736-83.873 47.163-106.145 5.106-6.524 3.955-15.952-2.57-21.057z"></path><path d="m256.002 496.002c24.813 0 45-20.187 45-45v-15h106c8.284 0 15-6.72 15-15.004 0-22.247-5.011-43.552-14.892-63.321l-.108-.217c-9.813-19.625-15-41.598-15-63.541 0 0 0-37.917 0-37.918 0-81.352-40.991-150.259-97.07-172.473 3.852-6.63 6.07-14.323 6.07-22.527 0-24.813-20.187-45-45-45s-45 20.187-45 45c0 8.205 2.218 15.897 6.07 22.527-56.078 22.214-97.07 91.121-97.07 172.472v37.918c0 21.943-5.187 43.915-15.014 63.568l-.084.169c-9.749 19.497-14.902 41.4-14.902 63.345 0 8.284 6.716 15 15 15h106v15c0 24.815 20.186 45.002 45 45.002zm15-45c0 8.271-6.729 15-15 15s-15-6.729-15-15v-15h30zm-30-390c0-8.271 6.729-15 15-15s15 6.729 15 15-6.729 15-15 15-15-6.729-15-15zm-109.252 310.045.084-.169c12.183-24.365 18.168-51.917 18.168-74.375v-40.501c0-67.929 38.944-150 106-150 67.224 0 106 82.351 106 150v40.501c0 22.509 6.007 50.055 18.147 74.334 0 0 .111.224.118.237 5.539 11.078 9.136 22.776 10.751 34.928h-270.004c1.646-12.162 5.275-24.034 10.736-34.955z"></path></g></svg>